<?xml version="1.0" encoding="UTF-8" standalone="no"?>
<!-- Created with Inkscape (http://www.inkscape.org/) -->

<svg
   width="59.18441mm"
   height="41.438942mm"
   viewBox="0 0 59.18441 41.438942"
   version="1.1"
   id="svg5"
   inkscape:version="1.1.2 (0a00cf5339, 2022-02-04)"
   sodipodi:docname="movie.svg"
   xmlns:inkscape="http://www.inkscape.org/namespaces/inkscape"
   xmlns:sodipodi="http://sodipodi.sourceforge.net/DTD/sodipodi-0.dtd"
   xmlns:xlink="http://www.w3.org/1999/xlink"
   xmlns="http://www.w3.org/2000/svg"
   xmlns:svg="http://www.w3.org/2000/svg">
  <sodipodi:namedview
     id="namedview7"
     pagecolor="#ffffff"
     bordercolor="#666666"
     borderopacity="1.0"
     inkscape:pageshadow="2"
     inkscape:pageopacity="0.0"
     inkscape:pagecheckerboard="0"
     inkscape:document-units="mm"
     showgrid="false"
     fit-margin-top="0"
     fit-margin-left="0"
     fit-margin-right="0"
     fit-margin-bottom="0"
     inkscape:zoom="0.36340081"
     inkscape:cx="-345.34871"
     inkscape:cy="100.44006"
     inkscape:window-width="1366"
     inkscape:window-height="704"
     inkscape:window-x="0"
     inkscape:window-y="0"
     inkscape:window-maximized="1"
     inkscape:current-layer="layer1" />
  <defs
     id="defs2">
    <linearGradient
       inkscape:collect="always"
       id="linearGradient3169">
      <stop
         style="stop-color:#000080;stop-opacity:1;"
         offset="0"
         id="stop3165" />
      <stop
         style="stop-color:#000080;stop-opacity:0;"
         offset="1"
         id="stop3167" />
    </linearGradient>
    <linearGradient
       inkscape:collect="always"
       xlink:href="#linearGradient3169"
       id="linearGradient3171"
       x1="133.47377"
       y1="155.07677"
       x2="192.65817"
       y2="155.07677"
       gradientUnits="userSpaceOnUse"
       gradientTransform="translate(133.47377,134.3573)" />
  </defs>
  <g
     inkscape:label="Layer 1"
     inkscape:groupmode="layer"
     id="layer1"
     transform="translate(-133.47377,-134.3573)">
    <path
       style="fill:url(#linearGradient3171);fill-opacity:1;fill-rule:nonzero;stroke-width:1"
       d="m 151.06688,175.5107 c -9.04429,-1.32637 -16.31328,-8.84545 -17.44369,-18.04384 -1.179,-9.59373 4.72808,-18.96844 13.87223,-22.01567 11.45554,-3.81748 23.55441,2.68868 26.68535,14.35004 0.76845,2.86214 0.7677,7.59106 -0.002,10.45704 -0.89317,3.32713 -2.7352,6.57899 -5.12325,9.04442 -1.13366,1.17038 -2.06135,2.15773 -2.06156,2.19411 -2e-4,0.0364 5.77417,0.0661 12.83193,0.0661 7.05776,0 12.83229,0.0553 12.83229,0.12291 0,0.0676 -0.5447,1.0201 -1.21044,2.11667 l -1.21044,1.99376 -18.83175,-0.0323 c -10.35746,-0.0178 -19.51001,-0.13173 -20.33901,-0.25331 z m 13.2283,-0.29651 c 0.50662,-0.50662 0.37279,-0.74083 -0.42333,-0.74083 -0.7141,0 -1.37583,0.40722 -1.37583,0.84667 0,0.33237 1.44601,0.24731 1.79916,-0.10584 z m 3.70417,0 c 0.50662,-0.50662 0.37278,-0.74083 -0.42333,-0.74083 -0.7141,0 -1.37584,0.40722 -1.37584,0.84667 0,0.33237 1.44602,0.24731 1.79917,-0.10584 z m 3.96875,0 c 0.50662,-0.50662 0.37278,-0.74083 -0.42333,-0.74083 -0.7141,0 -1.37584,0.40722 -1.37584,0.84667 0,0.33237 1.44602,0.24731 1.79917,-0.10584 z m 3.70417,0 c 0.50662,-0.50662 0.37278,-0.74083 -0.42334,-0.74083 -0.71409,0 -1.37583,0.40722 -1.37583,0.84667 0,0.33237 1.44602,0.24731 1.79917,-0.10584 z m 3.62479,-0.21166 c 0.47051,-0.51991 0.46213,-0.52917 -0.47885,-0.52917 -0.68695,0 -1.03781,0.14962 -1.24094,0.52917 -0.25274,0.47223 -0.20122,0.52916 0.47885,0.52916 0.42603,0 0.97321,-0.23333 1.24094,-0.52916 z m 3.25437,0.21166 c 0.50662,-0.50662 0.37279,-0.74083 -0.42333,-0.74083 -0.7141,0 -1.37583,0.40722 -1.37583,0.84667 0,0.33237 1.44601,0.24731 1.79916,-0.10584 z m 3.70417,0 c 0.50662,-0.50662 0.37278,-0.74083 -0.42333,-0.74083 -0.7141,0 -1.37584,0.40722 -1.37584,0.84667 0,0.33237 1.44602,0.24731 1.79917,-0.10584 z m 3.70417,0 c 0.50662,-0.50662 0.37278,-0.74083 -0.42334,-0.74083 -0.71409,0 -1.37583,0.40722 -1.37583,0.84667 0,0.33237 1.44602,0.24731 1.79917,-0.10584 z m -30.68409,-1.53664 c 6.70991,-1.87034 12.04773,-7.38175 13.70739,-14.15315 0.63817,-2.60372 0.5854,-6.81044 -0.11829,-9.43068 -1.78194,-6.63518 -6.99557,-11.87412 -13.68798,-13.75441 -2.93403,-0.82434 -7.09629,-0.82434 -10.03032,0 -6.7508,1.8967 -12.04195,7.27767 -13.82233,14.05697 -0.67178,2.55801 -0.60274,6.95616 0.15142,9.64536 2.08001,7.41703 8.28228,12.97871 15.78511,14.15478 2.21105,0.34658 5.72665,0.11899 8.015,-0.51887 z m -9.08279,-2.81551 c -2.17396,-0.65644 -2.17356,-0.65396 -0.6568,-4.07768 l 1.34083,-3.02663 3.19097,0.0264 3.19097,0.0264 1.17355,2.99746 c 0.64545,1.6486 1.11565,3.14833 1.04489,3.33273 -0.4058,1.05748 -6.58212,1.53739 -9.28441,0.72141 z m 13.98832,-3.22016 c -0.14886,-0.099 -1.13319,-1.33282 -2.1874,-2.74185 -2.05466,-2.74621 -2.08707,-2.90708 -0.81706,-4.05567 0.65134,-0.58908 1.41917,-2.00553 1.68364,-3.1059 0.21039,-0.87539 0.44521,-0.88875 4.39813,-0.25028 2.65748,0.42924 2.78158,0.4785 2.85779,1.13435 0.0973,0.83724 -0.96576,3.73727 -1.92966,5.26418 -0.80612,1.27698 -2.66908,3.3648 -3.30706,3.70624 -0.23524,0.1259 -0.54951,0.14792 -0.69838,0.0489 z m -21.48303,-1.24028 c -2.13407,-1.7957 -5.05551,-7.89667 -4.32804,-9.03841 0.17993,-0.2824 6.35368,-1.11702 6.9045,-0.93341 0.15842,0.0528 0.29066,0.29445 0.29385,0.53698 0.01,0.74214 0.93625,2.53909 1.8395,3.56784 0.47113,0.53658 0.79826,1.12411 0.72697,1.30562 -0.2467,0.62805 -3.94121,5.09283 -4.27912,5.17127 -0.1866,0.0433 -0.70754,-0.23114 -1.15766,-0.60989 z m 10.29164,-8.25395 c -2.53544,-1.32841 -2.77535,-4.73872 -0.43685,-6.20984 1.26568,-0.79623 3.37913,-0.55465 4.44146,0.50768 1.5177,1.5177 1.22197,4.46444 -0.55725,5.55258 -0.97608,0.59696 -2.46977,0.66177 -3.44736,0.14958 z m 10.02531,-5.67205 c -0.31942,-1.18624 -1.24541,-2.79729 -1.93834,-3.37238 -0.23807,-0.19758 -0.43286,-0.52796 -0.43286,-0.73419 0,-0.57479 3.9699,-5.38109 4.44467,-5.38109 0.6137,0 2.80639,2.48545 3.70634,4.20119 1.02012,1.94485 1.69653,4.0642 1.59084,4.98448 -0.0824,0.71769 -0.14444,0.74396 -2.4658,1.04419 -1.30969,0.16939 -2.88268,0.31822 -3.49554,0.33073 -1.08828,0.0222 -1.12116,-0.003 -1.40931,-1.07293 z m -21.34374,0.0785 c -1.48537,-0.24094 -2.82532,-0.56359 -2.97768,-0.71701 -0.38089,-0.38352 0.3168,-2.67623 1.508,-4.95557 0.97649,-1.86849 3.58595,-4.7906 4.12475,-4.61895 0.43241,0.13776 4.14103,5.01124 4.14412,5.44577 10e-4,0.19515 -0.41362,0.84099 -0.92224,1.43519 -0.50861,0.5942 -1.14936,1.68469 -1.42388,2.42331 -0.59462,1.59989 -0.62912,1.60754 -4.45307,0.98726 z m 9.87697,-6.33852 c -0.3475,-0.56227 -2.27875,-5.7955 -2.28004,-6.17836 -0.002,-0.54257 1.12598,-0.95358 3.56923,-1.30075 2.94574,-0.41857 7.5418,0.45948 7.5418,1.44082 0,0.51915 -2.11042,5.49008 -2.52386,5.94475 -0.26334,0.2896 -0.60243,0.29815 -1.81785,0.0458 -1.09624,-0.22758 -1.84789,-0.23431 -2.82256,-0.0253 -1.58767,0.34049 -1.50366,0.33681 -1.66672,0.073 z m 24.79619,27.19941 c 0.25789,-0.43657 0.68754,-0.79375 0.95479,-0.79375 0.26724,0 0.55443,-0.1786 0.63819,-0.39688 0.11452,-0.29842 -0.0446,-0.39687 -0.64145,-0.39687 -0.46149,0 -0.85751,0.16613 -0.94605,0.39687 -0.10039,0.2616 -0.51442,0.39688 -1.21472,0.39688 -0.91438,0 -1.01652,-0.0553 -0.73304,-0.39688 0.28093,-0.33851 0.20666,-0.39687 -0.50508,-0.39687 -0.49765,0 -0.89592,0.16018 -0.98674,0.39687 -0.10025,0.26125 -0.51397,0.39688 -1.21063,0.39688 -0.83204,0 -1.02577,-0.0849 -0.90604,-0.39688 0.11452,-0.29842 -0.0446,-0.39687 -0.64145,-0.39687 -0.46149,0 -0.85751,0.16613 -0.94605,0.39687 -0.0838,0.21828 -0.42911,0.39688 -0.76743,0.39688 -0.38149,0 -0.82981,0.30148 -1.18033,0.79375 l -0.5652,0.79375 h 4.59118 4.59117 z m 12.7,0 0.46888,-0.79375 h -0.97339 c -0.83525,0 -0.92665,-0.0563 -0.64402,-0.39688 0.28093,-0.33851 0.20666,-0.39687 -0.50508,-0.39687 -0.49765,0 -0.89592,0.16018 -0.98674,0.39687 -0.10039,0.2616 -0.51442,0.39688 -1.21472,0.39688 -0.91438,0 -1.01653,-0.0553 -0.73305,-0.39688 0.28033,-0.33778 0.21119,-0.39687 -0.46437,-0.39687 -0.43656,0 -0.94197,0.17859 -1.12313,0.39687 -0.18115,0.21828 -0.68656,0.39688 -1.12312,0.39688 -0.67556,0 -0.74471,-0.0591 -0.46438,-0.39688 0.28033,-0.33778 0.21119,-0.39687 -0.46437,-0.39687 -0.43656,0 -0.94197,0.17859 -1.12313,0.39687 -0.26976,0.32504 -0.25168,0.39688 0.0999,0.39688 0.53566,0 0.53592,0.12043 0.002,0.93535 l -0.42719,0.65215 h 4.60359 4.60359 z m -21.76907,-1.21107 c 0.30533,-0.3679 0.24107,-0.40707 -0.54253,-0.33073 -0.48889,0.0476 -0.93775,0.23542 -0.99746,0.41732 -0.15975,0.48663 1.12417,0.41444 1.53999,-0.0866 z m 24.07709,0 c 0.30532,-0.3679 0.24107,-0.40707 -0.54254,-0.33073 -0.48889,0.0476 -0.93774,0.23542 -0.99746,0.41732 -0.15975,0.48663 1.12418,0.41444 1.54,-0.0866 z"
       id="path890" />
  </g>
</svg>
